<svg viewBox="0 0 1200 280" xmlns="http://www.w3.org/2000/svg" font-family="Helvetica, Arial, sans-serif">
  <defs>
    <linearGradient id="bg" x1="0%" y1="0%" x2="100%" y2="100%">
      <stop offset="0%" stop-color="#03263f"/>
      <stop offset="55%" stop-color="#06416b"/>
      <stop offset="100%" stop-color="#0b6aa8"/>
    </linearGradient>
  </defs>

  <rect width="1200" height="280" rx="18" fill="url(#bg)"/>

  <g stroke="#ffffff" stroke-opacity="0.14" stroke-width="1.3" fill="none" stroke-linecap="round">
    <path d="M185,58 L125,58 L170,58 L140,58 L215,58" /><path d="M222,186 L222,261 L222,216 L252,216" /><path d="M44,38 L44,98 L44,68 L44,113 L119,113" /><path d="M294,44 L354,44" /><path d="M207,169 L267,169 L297,169" /><path d="M49,252 L49,270 L49,270 L49,225 L49,195" /><path d="M279,74 L324,74 L324,10 L399,10" /><path d="M39,42 L39,87 L39,162 L39,117 L10,117" /><path d="M242,127 L272,127" /><path d="M935,81 L1010,81 L1010,36" /><path d="M946,161 L946,236 L946,266 L946,236" /><path d="M1117,35 L1042,35 L982,35" /><path d="M963,77 L918,77 L918,47" /><path d="M931,167 L931,212 L931,270" /><path d="M1103,32 L1178,32 L1178,107" /><path d="M1013,31 L1043,31 L1043,10" /><path d="M968,94 L1013,94 L1043,94 L1103,94 L1043,94" /><path d="M1114,56 L1114,11 L1039,11 L1114,11 L1144,11" />
  </g>
  <g fill="#ffffff" fill-opacity="0.22">
    <circle cx="185" cy="58" r="3" /><circle cx="125" cy="58" r="2.5" /><circle cx="170" cy="58" r="2" /><circle cx="140" cy="58" r="2.5" /><circle cx="215" cy="58" r="3" /><circle cx="222" cy="186" r="2.5" /><circle cx="222" cy="261" r="2.5" /><circle cx="222" cy="216" r="2" /><circle cx="252" cy="216" r="2" /><circle cx="44" cy="38" r="2" /><circle cx="44" cy="98" r="2" /><circle cx="44" cy="68" r="3" /><circle cx="44" cy="113" r="2" /><circle cx="119" cy="113" r="2.5" /><circle cx="294" cy="44" r="2" /><circle cx="354" cy="44" r="3" /><circle cx="207" cy="169" r="2" /><circle cx="267" cy="169" r="3" /><circle cx="297" cy="169" r="2.5" /><circle cx="49" cy="252" r="2" /><circle cx="49" cy="270" r="2" /><circle cx="49" cy="270" r="3" /><circle cx="49" cy="225" r="2" /><circle cx="49" cy="195" r="3" /><circle cx="279" cy="74" r="2" /><circle cx="324" cy="74" r="3" /><circle cx="324" cy="10" r="2.5" /><circle cx="399" cy="10" r="2" /><circle cx="39" cy="42" r="3" /><circle cx="39" cy="87" r="3" /><circle cx="39" cy="162" r="3" /><circle cx="39" cy="117" r="2" /><circle cx="10" cy="117" r="2" /><circle cx="242" cy="127" r="2" /><circle cx="272" cy="127" r="2" /><circle cx="935" cy="81" r="2" /><circle cx="1010" cy="81" r="2" /><circle cx="1010" cy="36" r="3" /><circle cx="946" cy="161" r="2" /><circle cx="946" cy="236" r="3" /><circle cx="946" cy="266" r="2.5" /><circle cx="946" cy="236" r="2" /><circle cx="1117" cy="35" r="2" /><circle cx="1042" cy="35" r="2" /><circle cx="982" cy="35" r="2" /><circle cx="963" cy="77" r="2" /><circle cx="918" cy="77" r="2" /><circle cx="918" cy="47" r="3" /><circle cx="931" cy="167" r="2" /><circle cx="931" cy="212" r="2" /><circle cx="931" cy="270" r="2" /><circle cx="1103" cy="32" r="2.5" /><circle cx="1178" cy="32" r="2" /><circle cx="1178" cy="107" r="2.5" /><circle cx="1013" cy="31" r="2" /><circle cx="1043" cy="31" r="2.5" /><circle cx="1043" cy="10" r="2.5" /><circle cx="968" cy="94" r="3" /><circle cx="1013" cy="94" r="2" /><circle cx="1043" cy="94" r="2" /><circle cx="1103" cy="94" r="2.5" /><circle cx="1043" cy="94" r="3" /><circle cx="1114" cy="56" r="3" /><circle cx="1114" cy="11" r="2" /><circle cx="1039" cy="11" r="2" /><circle cx="1114" cy="11" r="2" /><circle cx="1144" cy="11" r="3" />
  </g>

  <text x="600.0" y="118" font-size="37" font-weight="700" fill="#ffffff" text-anchor="middle" letter-spacing="1.3">AMEED NAZHURUDEEN SHEIK ALI</text>
  <text x="600.0" y="153" font-size="17" font-weight="500" fill="#bfe0f5" text-anchor="middle" letter-spacing="0.4">Robotics Engineer &#183; M.Sc. Mobile Robotics, University of Bonn</text>

  <line x1="530.0" y1="175" x2="670.0" y2="175" stroke="#5fb2e8" stroke-width="2"/>

  <text x="600.0" y="203" font-size="12.5" fill="#9fc9e8" text-anchor="middle" letter-spacing="1.6">AUTONOMOUS SYSTEMS &#183; COMPUTER VISION &#183; SENSOR FUSION &#183; ROS2</text>
</svg>
