<svg viewBox="0 0 720 340" xmlns="http://www.w3.org/2000/svg" font-family="Helvetica, Arial, sans-serif">
  <rect x="0.5" y="0.5" width="719" height="339" rx="14" fill="#ffffff" stroke="#e2e8f0" stroke-width="1"/>

  <text x="28" y="38" font-size="19" font-weight="700" fill="#004682">Core Competencies</text>
  <text x="28" y="56" font-size="11" fill="#6b7280">Self-assessed proficiency</text>

  <!-- Row 1 -->
  <text x="28" y="89" font-size="13" font-weight="500" fill="#1f2937">ROS2 &amp; Middleware</text>
  <rect x="280" y="78" width="380" height="16" rx="8" fill="#e8edf2"/>
  <rect x="280" y="78" width="342" height="16" rx="8" fill="#004682"/>
  <text x="670" y="90" font-size="12" font-weight="700" fill="#004682" text-anchor="end">90%</text>

  <!-- Row 2 -->
  <text x="28" y="131" font-size="13" font-weight="500" fill="#1f2937">Sensor Fusion (LiDAR/IMU)</text>
  <rect x="280" y="120" width="380" height="16" rx="8" fill="#e8edf2"/>
  <rect x="280" y="120" width="334" height="16" rx="8" fill="#004682"/>
  <text x="670" y="132" font-size="12" font-weight="700" fill="#004682" text-anchor="end">88%</text>

  <!-- Row 3 -->
  <text x="28" y="173" font-size="13" font-weight="500" fill="#1f2937">Computer Vision</text>
  <rect x="280" y="162" width="380" height="16" rx="8" fill="#e8edf2"/>
  <rect x="280" y="162" width="323" height="16" rx="8" fill="#004682"/>
  <text x="670" y="174" font-size="12" font-weight="700" fill="#004682" text-anchor="end">85%</text>

  <!-- Row 4 -->
  <text x="28" y="215" font-size="13" font-weight="500" fill="#1f2937">Embedded Systems</text>
  <rect x="280" y="204" width="380" height="16" rx="8" fill="#e8edf2"/>
  <rect x="280" y="204" width="304" height="16" rx="8" fill="#004682"/>
  <text x="670" y="216" font-size="12" font-weight="700" fill="#004682" text-anchor="end">80%</text>

  <!-- Row 5 -->
  <text x="28" y="257" font-size="13" font-weight="500" fill="#1f2937">CAD &amp; Simulation</text>
  <rect x="280" y="246" width="380" height="16" rx="8" fill="#e8edf2"/>
  <rect x="280" y="246" width="296" height="16" rx="8" fill="#004682"/>
  <text x="670" y="258" font-size="12" font-weight="700" fill="#004682" text-anchor="end">78%</text>

  <!-- Row 6 -->
  <text x="28" y="299" font-size="13" font-weight="500" fill="#1f2937">Machine Learning</text>
  <rect x="280" y="288" width="380" height="16" rx="8" fill="#e8edf2"/>
  <rect x="280" y="288" width="285" height="16" rx="8" fill="#004682"/>
  <text x="670" y="300" font-size="12" font-weight="700" fill="#004682" text-anchor="end">75%</text>
</svg>
