<svg viewBox="0 0 900 1176" xmlns="http://www.w3.org/2000/svg" font-family="Helvetica, Arial, sans-serif">
<rect x="0.5" y="0.5" width="899" height="1175" rx="16" fill="#ffffff" stroke="#e2e8f0" stroke-width="1"/>
<text x="32" y="38" font-size="22" font-weight="700" fill="#004682">Core Competencies</text>
<text x="32" y="58" font-size="12" fill="#6b7280">Robotics &amp; automation skill set across 13 domains</text>
<line x1="32" y1="60" x2="868" y2="60" stroke="#e2e8f0" stroke-width="1"/>
<text x="32" y="100" font-size="14.5" font-weight="700" fill="#1f2937">⚙️&#160;&#160;Mechanical &amp; CAD</text>
<rect x="798.9" y="71.0" width="69.1" height="20" rx="10" fill="#eaf1f8"/>
<text x="833.4" y="85.0" font-size="10.5" font-weight="700" fill="#004682" text-anchor="middle">7 skills</text>
<text x="32" y="121.0" font-size="11.3" fill="#4b5563">AutoCAD, SolidWorks, Fusion 360, Onshape, Ansys, GD&amp;T, Design for Additive Manufacturing</text>
<line x1="32" y1="143.5" x2="868" y2="143.5" stroke="#f1f5f9" stroke-width="1"/>
<text x="32" y="174.5" font-size="14.5" font-weight="700" fill="#1f2937">🔌&#160;&#160;Electronics &amp; Hardware</text>
<rect x="792.7" y="145.5" width="75.3" height="20" rx="10" fill="#eaf1f8"/>
<text x="830.4" y="159.5" font-size="10.5" font-weight="700" fill="#004682" text-anchor="middle">10 skills</text>
<text x="32" y="195.5" font-size="11.3" fill="#4b5563">PCB Design, Sensors &amp; Actuators, Microcontrollers &amp; Microprocessors, Electronics &amp; Electrical, Communication Protocols, PWM, Sensor Fusion</text>
<text x="32" y="212.0" font-size="11.3" fill="#4b5563">PID Control, Wireless Communication, RTOS</text>
<line x1="32" y1="234.5" x2="868" y2="234.5" stroke="#f1f5f9" stroke-width="1"/>
<text x="32" y="265.5" font-size="14.5" font-weight="700" fill="#1f2937">🖥️&#160;&#160;Embedded Systems</text>
<rect x="798.9" y="236.5" width="69.1" height="20" rx="10" fill="#eaf1f8"/>
<text x="833.4" y="250.5" font-size="10.5" font-weight="700" fill="#004682" text-anchor="middle">8 skills</text>
<text x="32" y="286.5" font-size="11.3" fill="#4b5563">Arduino, Raspberry Pi, Jetson Nano, Teensy Microcontrollers, IMU Sensors, Depth Sensors, LiDAR Systems, Sensor Integration</text>
<line x1="32" y1="309.0" x2="868" y2="309.0" stroke="#f1f5f9" stroke-width="1"/>
<text x="32" y="340.0" font-size="14.5" font-weight="700" fill="#1f2937">💻&#160;&#160;Programming</text>
<rect x="798.9" y="311.0" width="69.1" height="20" rx="10" fill="#eaf1f8"/>
<text x="833.4" y="325.0" font-size="10.5" font-weight="700" fill="#004682" text-anchor="middle">7 skills</text>
<text x="32" y="361.0" font-size="11.3" fill="#4b5563">Python, C, Arduino C++, Shell Scripting, Git, Linux, Web Development for ROS2</text>
<line x1="32" y1="383.5" x2="868" y2="383.5" stroke="#f1f5f9" stroke-width="1"/>
<text x="32" y="414.5" font-size="14.5" font-weight="700" fill="#1f2937">🤖&#160;&#160;ROS &amp; Robotics Frameworks</text>
<rect x="792.7" y="385.5" width="75.3" height="20" rx="10" fill="#eaf1f8"/>
<text x="830.4" y="399.5" font-size="10.5" font-weight="700" fill="#004682" text-anchor="middle">10 skills</text>
<text x="32" y="435.5" font-size="11.3" fill="#4b5563">ROS, ROS2, ROS2 URDF &amp; TF, ROS2 Navigation, ROS2 Advanced Navigation, ROS2 Control Framework, ROS2 Perception, ROS2 Manipulators</text>
<text x="32" y="452.0" font-size="11.3" fill="#4b5563">ROS2 AI &amp; Reinforcement Learning, RoboDK</text>
<line x1="32" y1="474.5" x2="868" y2="474.5" stroke="#f1f5f9" stroke-width="1"/>
<text x="32" y="505.5" font-size="14.5" font-weight="700" fill="#1f2937">🧠&#160;&#160;Computer Vision &amp; AI</text>
<rect x="798.9" y="476.5" width="69.1" height="20" rx="10" fill="#eaf1f8"/>
<text x="833.4" y="490.5" font-size="10.5" font-weight="700" fill="#004682" text-anchor="middle">7 skills</text>
<text x="32" y="526.5" font-size="11.3" fill="#4b5563">OpenCV, TensorFlow / Keras, Image Processing, Object Detection, Deep Learning for Perception, ML &amp; AI, Reinforcement Learning</text>
<line x1="32" y1="549.0" x2="868" y2="549.0" stroke="#f1f5f9" stroke-width="1"/>
<text x="32" y="580.0" font-size="14.5" font-weight="700" fill="#1f2937">🦾&#160;&#160;Robotics &amp; Automation</text>
<rect x="798.9" y="551.0" width="69.1" height="20" rx="10" fill="#eaf1f8"/>
<text x="833.4" y="565.0" font-size="10.5" font-weight="700" fill="#004682" text-anchor="middle">7 skills</text>
<text x="32" y="601.0" font-size="11.3" fill="#4b5563">Autonomous Mobile Robots (AMR), Collaborative Robots (Cobots), ROV / AUV Systems, Robot Motion Control, Robot System Integration</text>
<text x="32" y="617.5" font-size="11.3" fill="#4b5563">Motion Planning, Robot Navigation</text>
<line x1="32" y1="640.0" x2="868" y2="640.0" stroke="#f1f5f9" stroke-width="1"/>
<text x="32" y="671.0" font-size="14.5" font-weight="700" fill="#1f2937">🏭&#160;&#160;Industrial Robots</text>
<rect x="798.9" y="642.0" width="69.1" height="20" rx="10" fill="#eaf1f8"/>
<text x="833.4" y="656.0" font-size="10.5" font-weight="700" fill="#004682" text-anchor="middle">3 skills</text>
<text x="32" y="692.0" font-size="11.3" fill="#4b5563">ABB Robot Training, Fanuc Training, KUKA Training</text>
<line x1="32" y1="714.5" x2="868" y2="714.5" stroke="#f1f5f9" stroke-width="1"/>
<text x="32" y="745.5" font-size="14.5" font-weight="700" fill="#1f2937">🤝&#160;&#160;Cobots</text>
<rect x="798.9" y="716.5" width="69.1" height="20" rx="10" fill="#eaf1f8"/>
<text x="833.4" y="730.5" font-size="10.5" font-weight="700" fill="#004682" text-anchor="middle">5 skills</text>
<text x="32" y="766.5" font-size="11.3" fill="#4b5563">Universal Robots (UR), AUBO, Doosan, Cobot Programming, Cobot Integration</text>
<line x1="32" y1="789.0" x2="868" y2="789.0" stroke="#f1f5f9" stroke-width="1"/>
<text x="32" y="820.0" font-size="14.5" font-weight="700" fill="#1f2937">🚗&#160;&#160;AMR Platforms</text>
<rect x="798.9" y="791.0" width="69.1" height="20" rx="10" fill="#eaf1f8"/>
<text x="833.4" y="805.0" font-size="10.5" font-weight="700" fill="#004682" text-anchor="middle">4 skills</text>
<text x="32" y="841.0" font-size="11.3" fill="#4b5563">MiR (Mobile Industrial Robots), iPlus Mobot, OTTO Motors, Siemens AMR</text>
<line x1="32" y1="863.5" x2="868" y2="863.5" stroke="#f1f5f9" stroke-width="1"/>
<text x="32" y="894.5" font-size="14.5" font-weight="700" fill="#1f2937">🌊&#160;&#160;ROV &amp; Drones</text>
<rect x="798.9" y="865.5" width="69.1" height="20" rx="10" fill="#eaf1f8"/>
<text x="833.4" y="879.5" font-size="10.5" font-weight="700" fill="#004682" text-anchor="middle">5 skills</text>
<text x="32" y="915.5" font-size="11.3" fill="#4b5563">BlueROV2, Chasing ROV, Humanoid Robot, AUV Systems, Drone Systems</text>
<line x1="32" y1="938.0" x2="868" y2="938.0" stroke="#f1f5f9" stroke-width="1"/>
<text x="32" y="969.0" font-size="14.5" font-weight="700" fill="#1f2937">🖥️&#160;&#160;Simulation &amp; Tools</text>
<rect x="798.9" y="940.0" width="69.1" height="20" rx="10" fill="#eaf1f8"/>
<text x="833.4" y="954.0" font-size="10.5" font-weight="700" fill="#004682" text-anchor="middle">7 skills</text>
<text x="32" y="990.0" font-size="11.3" fill="#4b5563">Gazebo, RViz, RoboDK, RoboStudio, Docker, GitHub, Git Version Control</text>
<line x1="32" y1="1012.5" x2="868" y2="1012.5" stroke="#f1f5f9" stroke-width="1"/>
<text x="32" y="1043.5" font-size="14.5" font-weight="700" fill="#1f2937">🖨️&#160;&#160;Digital Fabrication</text>
<rect x="798.9" y="1014.5" width="69.1" height="20" rx="10" fill="#eaf1f8"/>
<text x="833.4" y="1028.5" font-size="10.5" font-weight="700" fill="#004682" text-anchor="middle">4 skills</text>
<text x="32" y="1064.5" font-size="11.3" fill="#4b5563">3D Printing (FDM / SLA), Cura, PrusaSlicer, Rapid Prototyping</text>
<line x1="32" y1="1080.0" x2="868" y2="1080.0" stroke="#e2e8f0" stroke-width="1"/>
<text x="171.3" y="1124.0" font-size="24" font-weight="700" fill="#004682" text-anchor="middle">84+</text>
<text x="171.3" y="1144.0" font-size="11" fill="#6b7280" text-anchor="middle">Total Skills</text>
<line x1="310.7" y1="1102.0" x2="310.7" y2="1150.0" stroke="#e2e8f0" stroke-width="1"/>
<text x="450.0" y="1124.0" font-size="24" font-weight="700" fill="#004682" text-anchor="middle">13</text>
<text x="450.0" y="1144.0" font-size="11" fill="#6b7280" text-anchor="middle">Categories</text>
<line x1="589.3" y1="1102.0" x2="589.3" y2="1150.0" stroke="#e2e8f0" stroke-width="1"/>
<text x="728.7" y="1124.0" font-size="24" font-weight="700" fill="#004682" text-anchor="middle">5+</text>
<text x="728.7" y="1144.0" font-size="11" fill="#6b7280" text-anchor="middle">Years Experience</text>
</svg>